<svg width="512" height="512" viewBox="0 0 512 512" xmlns="http://www.w3.org/2000/svg">
  <defs>
    <linearGradient id="primaryGrad" x1="0%" y1="0%" x2="100%" y2="100%">
      <stop offset="0%" stop-color="#4f46e5" />
      <stop offset="100%" stop-color="#9333ea" />
    </linearGradient>
  </defs>
  <rect x="0" y="0" width="512" height="512" rx="120" fill="url(#primaryGrad)" />
  
  <path d="M192 160 L192 352" stroke="#ffffff" stroke-width="48" stroke-linecap="round" stroke-linejoin="round" />
  
  <path d="M192 160 C280 160 352 192 352 248 C352 304 280 336 192 336" fill="none" stroke="#ffffff" stroke-width="48" stroke-linecap="round" />
  
  <path d="M352 144 Q384 144 384 112 Q384 144 416 144 Q384 144 384 176 Q384 144 352 144 Z" fill="#ffffff" />
  <path d="M384 272 Q400 272 400 256 Q400 272 416 272 Q400 272 400 288 Q400 272 384 272 Z" fill="#e2e8f0" />
</svg>